# xmcd
#
# Track frame offsets:
#	150
#	16722
#	36482
#	48310
#	62545
#	77260
#	101582
#	114152
#	126605
#	141897
#	163047
#
# Disc length: 2420 seconds
#
# Revision: 0
# Processed by: cddbd v1.5.1PL0 Copyright (c) Steve Scherf et al.
# Submitted via: dBpowerAMP V4.0
#
DISCID=8809720b
DTITLE=Kenny Jacobson - Take Everything I Ever Wanted
DYEAR=1900
DGENRE=
TTITLE0=Love You More
TTITLE1=Nashville
TTITLE2=Hallelujah
TTITLE3=What I Want, What I Need, And What I Get
TTITLE4=Good Conversation
TTITLE5=Licking My Wounds
TTITLE6=The Others
TTITLE7=There's A Light
TTITLE8=Least Of All Me
TTITLE9=Never To Die
TTITLE10=Lullaby
EXTD=
EXTT0=
EXTT1=
EXTT2=
EXTT3=
EXTT4=
EXTT5=
EXTT6=
EXTT7=
EXTT8=
EXTT9=
EXTT10=
PLAYORDER=
